<?xml version="1.0" encoding="UTF-8"?>
<!-- Generated by Pixelmator Pro 3.7 -->
<svg width="512" height="512" viewBox="0 0 512 512" xmlns="http://www.w3.org/2000/svg">
    <path id="Path" fill="#55aaff" stroke="none" d="M 0.999999 476 C 1 330.309265 1 184.61853 1.284697 38.800903 C 1.948963 38.351471 2.55408 38.097351 2.675667 37.696533 C 8.040641 20.011292 19.440016 8.343201 37.151325 2.867279 C 37.585182 2.733154 37.723724 1.643829 38 1 C 183.69075 1 329.3815 1 475.199097 1.284698 C 475.648499 1.948944 475.901917 2.551575 476.303467 2.675964 C 493.902527 8.127563 505.592865 19.504669 511.132385 37.151306 C 511.269073 37.586731 512.356201 37.723785 513 38 C 513 183.690735 513 329.3815 512.715271 475.199127 C 512.051025 475.64856 511.445862 475.902679 511.32431 476.303467 C 505.959412 493.9888 494.559784 505.656616 476.848694 511.132721 C 476.414825 511.266876 476.276306 512.356201 476 513 C 330.309265 513 184.618515 513 38.800892 512.715271 C 38.351463 512.050964 38.097328 511.445892 37.69651 511.32431 C 20.011232 505.959381 8.343189 494.559967 2.867282 476.848663 C 2.733147 476.414825 1.643822 476.276276 0.999999 476 M 414.497101 86.102386 C 365.426514 86.102386 316.355927 86.102386 267.371735 86.102386 C 267.371735 110.60434 267.371735 134.192688 267.371735 158.483307 C 276.192749 158.483307 284.663025 158.483307 294.577667 158.483307 C 271.531586 178.09613 249.698303 196.676819 227.235123 215.793579 C 226.92215 213.842102 226.68924 213.062927 226.688065 212.283386 C 226.662766 195.616882 226.712936 178.950012 226.613388 162.284058 C 226.595474 159.284973 227.596298 158.106995 230.65358 158.19751 C 236.221268 158.362427 241.797333 158.244354 247.385529 158.244354 C 247.385529 133.711761 247.385529 110.142456 247.385529 86.468628 C 191.929871 86.468628 136.868286 86.468628 81.566612 86.468628 C 81.566612 110.411255 81.566612 133.986938 81.566612 158.224976 C 88.77655 158.224976 95.680038 158.224976 102.74131 158.224976 C 102.74131 224.562286 102.74131 290.235382 102.74131 356.233337 C 96.91758 356.233337 91.581749 356.453705 86.274254 356.160797 C 82.316406 355.942322 81.129608 357.308044 81.163521 361.260437 C 81.337982 381.592194 81.411049 401.928619 81.124908 422.257843 C 81.054352 427.270599 82.322792 428.725433 87.466721 428.705841 C 138.799133 428.510071 190.132584 428.587097 241.465729 428.586731 C 242.299057 428.586731 243.13649 428.526642 243.964935 428.588806 C 246.676117 428.792206 247.827011 427.729309 247.816406 424.853607 C 247.736511 403.187286 247.736923 381.520477 247.816299 359.854156 C 247.827026 356.929352 246.602264 356.11319 243.91069 356.19809 C 239.581757 356.334564 235.237595 356.071655 230.914413 356.279694 C 227.641769 356.437164 226.571487 355.208618 226.603485 351.966766 C 226.735123 338.634796 226.622879 325.300537 226.709152 311.967804 C 226.71814 310.579254 227.005005 308.68808 227.916077 307.891571 C 233.906296 302.654602 240.103287 297.654083 246.667847 292.216064 C 247.927277 294.675842 248.937073 296.556946 249.866638 298.476929 C 270.11322 340.295959 290.403259 382.094208 310.497162 423.986481 C 312.222961 427.584473 314.238281 428.685211 318.092896 428.670349 C 354.425537 428.530121 390.758972 428.590546 427.092163 428.576263 C 428.884644 428.575562 430.677032 428.41864 432.582703 428.329163 C 432.582703 404.187714 432.582703 380.470276 432.582703 356.231415 C 426.586456 356.231415 420.945923 356.054199 415.323822 356.299225 C 412.05481 356.441681 410.259399 355.309906 408.666626 352.405396 C 385.040894 309.322449 361.32605 266.288177 337.494476 223.318787 C 335.676758 220.04129 335.985504 218.296906 338.897888 215.917419 C 361.223206 197.677063 383.358429 179.203827 405.707336 160.992737 C 407.682465 159.383301 410.717926 158.543213 413.332092 158.359711 C 418.922119 157.967346 424.558777 158.239563 430.374207 158.239563 C 430.374207 133.875793 430.374207 110.17804 430.374207 86.102478 C 425.125854 86.102478 420.310364 86.102478 414.497101 86.102386 Z"/>
    <path id="path1" fill="#feffff" stroke="none" d="M 414.995972 86.102417 C 420.310364 86.102478 425.125854 86.102478 430.374207 86.102478 C 430.374207 110.17804 430.374207 133.875793 430.374207 158.239563 C 424.558777 158.239563 418.922119 157.967346 413.332092 158.359711 C 410.717926 158.543213 407.682465 159.383301 405.707336 160.992737 C 383.358429 179.203827 361.223206 197.677063 338.897888 215.917419 C 335.985504 218.296906 335.676758 220.04129 337.494476 223.318787 C 361.32605 266.288177 385.040894 309.322449 408.666626 352.405396 C 410.259399 355.309906 412.05481 356.441681 415.323822 356.299225 C 420.945923 356.054199 426.586456 356.231415 432.582703 356.231415 C 432.582703 380.470276 432.582703 404.187714 432.582703 428.329163 C 430.677032 428.41864 428.884644 428.575562 427.092163 428.576263 C 390.758972 428.590546 354.425537 428.530121 318.092896 428.670349 C 314.238281 428.685211 312.222961 427.584473 310.497162 423.986481 C 290.403259 382.094208 270.11322 340.295959 249.866638 298.476929 C 248.937073 296.556946 247.927277 294.675842 246.667847 292.216064 C 240.103287 297.654083 233.906296 302.654602 227.916077 307.891571 C 227.005005 308.68808 226.71814 310.579254 226.709152 311.967804 C 226.622879 325.300537 226.735123 338.634796 226.603485 351.966766 C 226.571487 355.208618 227.641769 356.437164 230.914413 356.279694 C 235.237595 356.071655 239.581757 356.334564 243.91069 356.19809 C 246.602264 356.11319 247.827026 356.929352 247.816299 359.854156 C 247.736923 381.520477 247.736511 403.187286 247.816406 424.853607 C 247.827011 427.729309 246.676117 428.792206 243.964935 428.588806 C 243.13649 428.526642 242.299057 428.586731 241.465729 428.586731 C 190.132584 428.587097 138.799133 428.510071 87.466721 428.705841 C 82.322792 428.725433 81.054352 427.270599 81.124908 422.257843 C 81.411049 401.928619 81.337982 381.592194 81.163521 361.260437 C 81.129608 357.308044 82.316406 355.942322 86.274254 356.160797 C 91.581749 356.453705 96.91758 356.233337 102.74131 356.233337 C 102.74131 290.235382 102.74131 224.562286 102.74131 158.224976 C 95.680038 158.224976 88.77655 158.224976 81.566612 158.224976 C 81.566612 133.986938 81.566612 110.411255 81.566612 86.468628 C 136.868286 86.468628 191.929871 86.468628 247.385529 86.468628 C 247.385529 110.142456 247.385529 133.711761 247.385529 158.244354 C 241.797333 158.244354 236.221268 158.362427 230.65358 158.19751 C 227.596298 158.106995 226.595474 159.284973 226.613388 162.284058 C 226.712936 178.950012 226.662766 195.616882 226.688065 212.283386 C 226.68924 213.062927 226.92215 213.842102 227.235123 215.793579 C 249.698303 196.676819 271.531586 178.09613 294.577667 158.483307 C 284.663025 158.483307 276.192749 158.483307 267.371735 158.483307 C 267.371735 134.192688 267.371735 110.60434 267.371735 86.102386 C 316.355927 86.102386 365.426514 86.102386 414.995972 86.102417 Z"/>
</svg>
